<svg xmlns="http://www.w3.org/2000/svg" width="730.29498" height="329.95099"><path d="M186.68 744.297c5.503-2.623 9.387-6.02 9.809-11 .861-10.463-11.32-13.9-20.329-13.803-24.565.29-45.932 25.476-45.72 46.921.131 11.949 11.188 18.422 21.594 15.504 10.872-3.05 22.764-10.59 29.839-20.215 1.714-2.303-3.577-2.065-4.799-2-6.96.357-9.132 7.115-19.635 6.812-5.027-.114-8.542-2.268-8.64-8.635-.149-9.888 8.816-21.248 16.322-26.262 3.305-2.21 6.934-1.846 10.512-.246 3.19 1.415 9.527 4.865 9.633 10.151 0 0-.026.616-.132 1.01-.176.62-.237 1.416-.045 1.667 0 0 .457.641 1.59.096zM-127.555 737.56c12.806-13.807 18.8-18.03 26.06-18.118 7.945-.101 9.536 3.31 9.44 12.3-.097 12.239-6.724 29.68.035 40.98 3.612 6.05-.413 11.183-8.517 9.588-11.997-2.377-11.206-14.12-11.926-22.882-.343-4.074-.888-17.429-9.572-14.99-6.02 1.692-9.967 9.624-12.12 14.014-3.955 8.077-8.692 15.135-15.662 21.744-11.892 10.64-19.582 10.952-13.834-5.994 2.549-8.327 11.223-30.063 16.313-45.743 2.276-7.04 1.133-14.537 6.284-13.636 5.563.98 14.3 2.145 9.861 25.352 0 0-.483 1.455.967.242 0 0 1.652-1.53 2.672-2.856zM47.831 770.405c-2.197 2.074-4.799 3.723-8.148 4.548-10.89 2.738-8.666-7.677-6.09-14.567 1.696-5.111 5.625-11.98 5.317-17.315-.457-7.532-6.302-1.753-8.807 1.182-5.238 6.1-11.373 14.331-15.495 21.05-2.303 3.424-3.717 8.614-7.884 9.523-20.188 4.36 3.534-49.76 5.054-58.72 1.09-6.306 4.263-7.123 7.91-5.365 8.192 3.994 5.177 13.289 5.81 22.495.316 3.762-.607 5.678 2.672 1.793 5.141-6.09 9.562-12.783 17.103-16.158 15.416-6.891 11.857 18.18 12.445 25.615-.036 2.18 5.292-5.546 11.312-11.447 3.551-3.477 8.306-8.5 13.799-8.6 11.725-.242 7.005 16.171 6.02 22.983-.94 6.315-1.916 12.674-1.652 19.033-.007 7.681 8.288 18.641-5.133 18.804-7.936.083-12.366-6.306-13.974-12.912-.792-3.282-.545-7.764.316-10.73.51-2.567 3.902-11.405.703-13.308-2.434-1.454-6.61 3.099-7.936 4.589-4.615 5.106-8.332 12.744-13.342 17.507zM100.952 767.04c.176-14.23 5.915-35.206 11.962-43.133 1.195-1.714 2.944-2.505 4.825-2.532 4.43-.074 7.295 4.712 7.216 12.16-.15 11.224-3.252 26.675-8.323 41.616-1.591 4.47-3.384 7.502-7.462 7.559-1.442.029-8.394-1.455-8.218-15.67zM-218.003 706.408c-14.458.193-24.6 14.022-30.955 34.272-6.434 20.532-8.56 42.64 9.817 38.576 21.27-4.69 42.03-29.567 45.563-27.993 3.533 1.582-10.362 33.508-14.309 59.203-4.06 26.556-2.628 44.833 7.62 41 4.351-1.48 10.002-23.519 13.676-38.074 3.709-14.567 17.244-69.714 20.013-80.235 2.786-10.512 11.074-25.664-.747-26.218-9.246-.44-12.278 8.759-15.592 16.59 0 0-11.171 26.81-51.68 46.815-7.048 3.48-4.377-8.016 2.866-21.02 7.224-12.99 23.493-43.017 13.728-42.916zM-19.432 721.53c1.986 3.133-10.942 4.548-18.105 9.948-5.915 4.21-25.7 19.192-27.238 33.68-1.529 14.484 13.588 4 20.593-5.124 7.023-9.132 10.275-23.34 15.162-27.615 3.506-3.085 15.494-9.712 17.112-6.684 1.608 3.028-2.751 16.554-3.797 28.173-.484 5.019.87 15.741 5.959 18.72 5.124 2.998 3.463 4.79-4.36 5.244-7.804.456-11.311.347-19.995-12.788 0 0-14.985 16.637-30.392 16.633-15.425.004-19.328-9.255-18.686-19.248.29-10.2 15.108-36.277 43.515-40.43 11.355-1.661 19.248-2.052 20.232-.51zM-360.887 688.219c3.885 3.467 24.548 7.901 40.28 8.34 15.733.427 47.655 15.605 39.331 46.719-6.53 24.367-29.329 34.563-71.841 35.81-13.403.392 7.778 10.952 32.22 6.223 24.443-4.71 66.877-20.02 63.747-68.563-2.285-35.24-56.443-42.847-67.473-43.176-15.188-.58-47.479 3.265-36.264 14.647z" style="fill:#f1471d;fill-opacity:1;fill-rule:nonzero;stroke:none" transform="translate(367.298 -618.348)"/><path d="M-339.407 689.796s-12.488 30.788-22.104 71.188c-1.485 6.323-9.922 39.677-3.252 38.157 6.645-1.534 21.024-24.807 28.53-41.383 7.496-16.568 21.287-60.434 22.086-71.174" style="fill:#f1471d;fill-opacity:1;fill-rule:nonzero;stroke:none" transform="translate(367.298 -618.348)"/><path d="M-89.718 937.885c7.84-8.38 40.632-26.688 73.609-27.874 61.813-2.25 118.388 47.922 187.04 11.518-33.909 30.278-70.638 33.816-120.454 15.926-60.715-21.797-100.301-15.878-140.195.43zM-127.678 870.337h10.6c10.318 0 22.078 1.064 22.078 12.696 0 10.863-11.443 12.397-22.395 12.397h-10.283v-25.093m-29.962 45.281h48.78c20.135 0 43.822-5.348 43.822-30.902 0-13.004-7.735-20.655-22.72-23.564v-.307c12.568-3.982 19.81-11.474 19.81-24.948 0-18.365-15.617-27.083-36.553-27.083h-53.139v106.804m29.962-86.603h10.125c9.985 0 19.652.914 19.652 10.71 0 9.026-10.15 11.329-19.977 11.329h-9.8zM209.12 872.626h-28.197l14.494-41.774h.325l13.377 41.774m-74.426 42.992h30.445l8.86-22.794h42.196l8.394 22.794h32.853l-43.33-106.804h-36.72zM262.24 808.822h38.18l35.35 71.121h.333l-.492-71.12h27.387v106.795h-37.213l-36.633-71.57h-.334l.967 71.57H262.24z" style="fill:#2056ae;fill-opacity:1;fill-rule:nonzero;stroke:none" transform="translate(367.298 -618.348)"/><path d="M41.872 885.63s9.307 3.181 16.963 5.383c7.392 2.123 16.822 3.85 28.336 3.85 9.492 0 19.837-2.338 19.837-10.907 0-19.886-51.443-14.634-51.443-45.945 0-26.046 24.689-31.034 47.26-31.034 10.783 0 21.62 2.135 29.188 4.618l-1.934 22.316c-7.726-3.402-16.638-5.546-25.163-5.546-7.576 0-17.974.088-17.974 8.784 0 14.116 50.994 10.213 50.994 46.086 0 15.346-7.33 24.548-18.044 29.76-21.542 10.647-60.706-2.114-64.221-3.16-8.912-2.68-19.204-5.199-19.204-5.199-45.115-10.164-69.355-4.113-82.512 1.428-5.063-5.695-8.438-15.71-8.438-27.4v-69.85h29.954v56.03c0 14.08 4.025 26.006 19.336 26.006 15.292 0 19.327-11.926 19.327-26.006v-56.03h29.962v66.26c0 9.765-2.233 17.728-6.293 24.016" style="fill:#2056ae;fill-opacity:1;fill-rule:nonzero;stroke:none" transform="translate(367.298 -618.348)"/><path d="M70.093 650.856c-.43 1.754-.395 3.626.106 5.247 1.424 4.69 21.946 14.252 26.394 10.081 3.006-2.82 3.366-7.325 1.01-9.847l-3.216-3.46c-3.823-4.332-6.46-7.228-16.155-8.208-4.543-.461-7.286 2.623-8.138 6.187zM62.456 698.379c5.59-7.576 24.003-12.001 27.774-9.589.755 4.122-.616 8.587-4.052 11.079l-4.43 3.181c-6.557 4.711-16.945 11.25-20.356-.422-.404-1.415.025-2.843 1.064-4.25zM149.95 700.317c10.566 8.046 19.24 12.726 32.283 5.106 1.653-3.994 1.046-8.52-2.83-10.195l-5.01-2.131c-6.055-2.764-7.294-3.802-18.553-.875-2.857.747-6.583 2.316-8.517 6.03a95.373 95.373 0 0 0 2.628 2.065zM123.022 619.176a12.481 12.481 0 0 0-4.712 3.138c-3.884 4.157-2.18 25.37 3.832 25.945 3.665.36 7.454-2.241 8.473-5.792 1.97-6.886 3.797-12.146 1.723-20.795-.967-3.999-5.845-3.779-9.316-2.496zM160.762 654.693c3.313-.176 6.882-4.439 8.156-6.754 2.039-3.683 6.838-5.705 10.723-4.422 3.884 1.288 5.528 5.652 3.62 9.374-4.095 7.99-13.579 14.467-23.264 14.985-4.395.238-7.356-2.14-7.023-6.099.335-3.969 3.393-6.843 7.788-7.084z" style="fill:#f9a70d;fill-opacity:1;fill-rule:nonzero;stroke:none" transform="translate(367.298 -618.348)"/><path d="M151.032 675.33c-4.702-4.307-16.603-10.829-29.048-1.244-12.436 9.58-9.861 23.651-.22 23.203 9.642-.444 16.418-7.198 19.372-13.135 3.27 1.147 4.262 8.828-3.824 14.994-8.094 6.174-22.825 8.138-28.933 1.327-6.109-6.798-4.8-20.395 7.7-28.687 12.506-8.306 18.895-9.255 22.112-9.405 4.333-.202 6.214.65 7.392-1.99 1.151-2.628-3.41-9.783-7.278-9.603-3.858.18-21.796 2.29-36.421 20.356-14.643 18.066-3.639 33.02 7.558 38.307 11.189 5.282 28.582 5.124 37.661-7.536 9.08-12.657 8.64-22.298 3.93-26.587z" style="fill:#f9a70d;fill-opacity:1;fill-rule:nonzero;stroke:none" transform="translate(367.298 -618.348)"/></svg>